<svg xmlns="http://www.w3.org/2000/svg" version="1.1" xmlns:xlink="http://www.w3.org/1999/xlink" xmlns:svgjs="http://svgjs.com/svgjs" width="80" height="52"><svg width="80" height="52" viewBox="0 0 80 52" fill="none" xmlns="http://www.w3.org/2000/svg">
<rect x="15" y="11" width="52" height="32" fill="white"></rect>
<path d="M24.426 15.2603H20.2387C20.1392 15.2603 20.0438 15.2992 19.9734 15.3686C19.903 15.438 19.8635 15.5321 19.8635 15.6302V24.3003C19.8662 24.3966 19.9069 24.4882 19.9769 24.5555C20.047 24.6227 20.1409 24.6603 20.2387 24.6602H24.426C25.6361 24.5823 26.7709 24.0533 27.6 23.1805C28.4291 22.3076 28.8904 21.1563 28.8904 19.9602C28.8904 18.7642 28.4291 17.6129 27.6 16.7401C26.7709 15.8672 25.6361 15.3382 24.426 15.2603Z" fill="#592FF4"></path>
<path d="M37.3022 30.6101C37.3022 31.8701 38.377 32.6101 40.2527 32.6101C42.8077 32.6101 44.3082 31.2501 44.3082 28.8301V28.1001L40.4859 28.3001C38.4784 28.3901 37.3022 29.2101 37.3022 30.6101Z" fill="#592FF4"></path>
<path d="M67.9466 4.00026H11.9829C10.13 4.00289 8.35388 4.73061 7.04462 6.02358C5.73537 7.31655 5 9.06907 5 10.8963V41.1037C5 42.9309 5.73537 44.6835 7.04462 45.9764C8.35388 47.2694 10.13 47.9971 11.9829 47.9997H67.9466C68.8691 48.0076 69.7842 47.8354 70.6389 47.493C71.4937 47.1506 72.2713 46.6447 72.9269 46.0046C73.5825 45.3646 74.1033 44.6029 74.4591 43.7634C74.8149 42.924 74.9987 42.0235 75 41.1137V10.9062C75.0014 9.99477 74.8195 9.09205 74.4649 8.25032C74.1103 7.4086 73.59 6.64455 72.9341 6.00236C72.2781 5.36016 71.4997 4.85257 70.6436 4.50892C69.7875 4.16527 68.8708 3.99238 67.9466 4.00026ZM24.5178 27.9476H20.1144C20.0156 27.9476 19.9207 27.9863 19.8508 28.0553C19.7809 28.1242 19.7416 28.2177 19.7416 28.3152V34.4958C19.7416 34.5933 19.7023 34.6869 19.6324 34.7558C19.5625 34.8248 19.4676 34.8635 19.3688 34.8635H16.2754C16.1765 34.8635 16.0817 34.8248 16.0117 34.7558C15.9418 34.6869 15.9026 34.5933 15.9026 34.4958V12.1781C15.9026 12.0806 15.9418 11.9871 16.0117 11.9182C16.0817 11.8492 16.1765 11.8105 16.2754 11.8105H24.5178C26.6851 11.8105 28.7636 12.6595 30.2961 14.1708C31.8287 15.6821 32.6896 17.7318 32.6896 19.8691C32.6896 22.0064 31.8287 24.0561 30.2961 25.5674C28.7636 27.0787 26.6851 27.9277 24.5178 27.9277V27.9476ZM47.6932 34.4859C47.702 34.5319 47.702 34.579 47.6932 34.625C47.6554 34.715 47.5829 34.7865 47.4917 34.8238H47.3506H44.4285H44.2874C44.1962 34.7865 44.1237 34.715 44.0859 34.625C44.0767 34.5791 44.0767 34.5318 44.0859 34.4859V33.8202C44.0922 33.7617 44.0789 33.7028 44.048 33.6525C44.017 33.6022 43.9702 33.5634 43.9146 33.5419C43.8585 33.5192 43.7962 33.5157 43.7378 33.5319C43.6794 33.5481 43.6281 33.5831 43.5922 33.6314C42.9941 34.206 42.2782 34.6479 41.4927 34.9272C40.7072 35.2066 39.8701 35.317 39.0377 35.251C35.7025 35.251 33.4957 33.5419 33.4957 30.5808C33.4633 29.8597 33.6141 29.1421 33.9343 28.4931C34.2546 27.8441 34.7342 27.2843 35.3296 26.8645C36.5287 25.9702 38.3525 25.5131 41.1638 25.4038L44.096 25.3044V24.4598C44.096 22.7507 42.9271 22.0254 41.0731 22.0254C39.2191 22.0254 38.0502 22.6812 37.7479 23.7444C37.7271 23.8201 37.681 23.8866 37.6169 23.9332C37.5532 23.9804 37.475 24.0049 37.3953 24.0027H34.453C34.399 24.005 34.3451 23.9953 34.2954 23.9744C34.2457 23.9534 34.2013 23.9218 34.1656 23.8818C34.1298 23.8418 34.1036 23.7944 34.0889 23.7431C34.0741 23.6919 34.0711 23.6379 34.0802 23.5854C34.5134 21.0515 36.6395 19.1338 41.1336 19.1338C45.94 19.1338 47.6731 21.3397 47.6731 25.5429L47.6932 34.4859ZM65.9414 19.9983L59.4321 37.129C57.9509 41.1037 55.4016 42.0974 52.5198 42.0974C51.986 42.1105 51.453 42.0469 50.9378 41.9086C50.8579 41.8871 50.7871 41.8406 50.7363 41.7761C50.6854 41.7116 50.6571 41.6326 50.6557 41.5509V38.9475C50.6442 38.8951 50.6442 38.8409 50.6557 38.7885C50.6905 38.7128 50.7503 38.6509 50.8253 38.613C50.9003 38.5751 50.9862 38.5634 51.0688 38.5798C51.5172 38.6646 51.9726 38.7078 52.4291 38.709C53.2133 38.748 53.9881 38.5264 54.6293 38.0796C55.2706 37.6327 55.7412 36.9866 55.9659 36.2447L56.1573 35.6485C56.1874 35.5683 56.1874 35.4802 56.1573 35.4001L50.1115 19.9784C50.0979 19.9229 50.0979 19.865 50.1115 19.8095C50.1222 19.7518 50.1464 19.6974 50.1821 19.6505C50.2163 19.6042 50.2612 19.5668 50.3131 19.5412C50.3694 19.5281 50.428 19.5281 50.4844 19.5412H53.4468C53.523 19.5418 53.5972 19.5649 53.66 19.6074C53.7229 19.6498 53.7714 19.7098 53.7995 19.7797L57.9308 30.71C57.9584 30.7814 58.0074 30.8429 58.0713 30.8863C58.1352 30.9297 58.2109 30.9529 58.2884 30.9529C58.366 30.9529 58.4417 30.9297 58.5056 30.8863C58.5695 30.8429 58.6185 30.7814 58.6462 30.71L62.2333 19.8591C62.2585 19.7867 62.3061 19.7238 62.3693 19.6792C62.4325 19.6347 62.5083 19.6107 62.586 19.6107H65.6089C65.6675 19.6111 65.7252 19.6248 65.7776 19.6506C65.83 19.6764 65.8757 19.7138 65.9112 19.7598C65.9469 19.8067 65.971 19.8611 65.9817 19.9188C65.995 19.9743 65.995 20.0322 65.9817 20.0877L65.9414 19.9983Z" fill="#592FF4"></path>
</svg><style>@media (prefers-color-scheme: light) { :root { filter: none; } }
</style></svg>